<?xml version="1.0"?>
<svg xmlns="http://www.w3.org/2000/svg" version="1.2" baseProfile="tiny" width="800" height="956" viewBox="0 0 800 956" stroke-linecap="round" stroke-linejoin="round">
<g id="Neighborhoods">
<path d="M 738.34 461.46 724.76 467.46 721.87 467.17 720.2 467.12 705.87 468.54 701.13 469.15 685.03 471.26 670.17 473.21 661.89 474.29 659.41 474.59 657.16 474.88 652.01 475.56 650.34 475.77 645.07 476.44 636.38 477.56 629.95 478.38 628.98 478.51 623.54 479.21 621.75 479.44 617.34 480 615.06 480.31 611.17 480.84 604.71 481.68 598.26 482.58 597.16 482.75 592.21 483.47 589 483.94 586.19 484.36 580.11 485.27 574.24 486.15 573.25 486.3 570.09 486.77 570.07 486.5 568.47 446.22 568.38 428.32 568.31 408.05 572.72 406.22 600.58 395.07 600.38 382.2 600.31 354.13 599.36 324.03 600.19 298.96 603.94 298.88 618.96 298.75 632.59 298.65 648.5 298.52 656.6 313.84 682.99 362.06 714 413.6 714 413.61 729.63 443.12 738.34 461.46 Z"/>
<path d="M 296.54 437.4 284.6 474.05 281.02 485.04 276.82 497.7 268.83 496.33 240.19 491.42 233.62 490.3 228.94 489.49 220.79 481.06 210.62 470.44 215.16 468.12 198.46 460.92 200.76 459.76 190.63 449.11 197.62 445.53 207.58 440.39 210.13 436.4 219.42 436.85 241.05 437 269.01 437.16 296.54 437.4 Z"/>
<path d="M 232.63 53.86 232.34 152.86 112.82 154.63 117.12 124.87 135.81 35.79 137.59 37.4 144.01 45.2 148.17 51.61 149.94 54.34 159.57 54.35 187.2 54.15 212.1 54 215.17 53.98 232.63 53.86 Z"/>
<path d="M 74.24 436.43 80.59 435.31 85.57 443.85 95.74 458.86 100.68 464.17 110.21 474.09 110.28 474.16 117.4 481.71 131.14 495.67 136.17 500.52 151.36 516.54 159.83 523.68 197.51 561.6 220.36 552.6 232.94 514.21 240.19 491.42 268.83 496.33 291.92 500.28 319.49 504.05 311.95 527.11 307.23 541.66 295.62 577.58 290.34 596.23 284.75 613.47 279.74 629.05 277.43 635.77 277.2 636.43 276.81 637.66 276.54 638.5 276.05 640 275.44 641.7 275.23 642.04 274.64 642.95 274.06 643.65 273.61 644.01 273.6 644.02 273.43 644.7 274.26 645.27 274.38 645.33 274.67 645.25 274.91 645.28 275.25 645.43 276.23 646.36 277.54 647.15 279.22 648.58 280.58 649.49 281.03 650.21 281.76 650.87 282.63 651.91 283.78 653.61 284.56 654.53 284.81 655.19 284.92 655.86 285.31 656.72 285.7 657.3 286.51 658.52 287.99 661.39 290.48 665.4 293.27 671.35 293.35 671.52 293.37 671.58 293.56 671.99 296.57 678.42 297.31 679.62 297.58 679.91 298.1 680.25 298.5 680.51 298.77 680.75 298.97 681.04 303.18 680.32 303.67 680.89 298.75 683.26 298.93 685.51 299.46 691.03 299.16 693.1 299.25 694.62 299.51 698.73 300.07 704.63 302.68 706.81 305.6 709.25 305.85 709.38 305.94 709.4 307.07 709.38 307.3 709.34 311.33 708.93 312.37 708.78 312.94 708.49 317.13 705.81 318.47 704.82 327.83 698.68 329.15 697.96 336.41 696.45 339.01 696.08 341.93 696.1 345.65 695.91 346.79 695.93 350.04 696.33 353.58 696.92 356.28 697.28 356.97 697 358.03 697.16 358.66 720.29 356.83 720.3 356.82 719.57 356.19 719.45 355.84 719.11 355.26 713.72 355.23 712.37 354.73 712.59 352.61 714.13 350.8 715.86 349.59 717.79 348.62 719.97 347.86 722.13 347.41 723.95 346.8 726.14 346.6 728.08 346.52 731.03 346.57 731.81 346.82 734.08 347.81 737.42 348.87 739.85 350.1 743.52 350.53 744.72 350.74 746.55 351.17 747.68 314.07 770.87 313.08 771.16 278.27 780.43 277.64 780.6 277.52 780.65 275.55 777.43 274.01 774.93 274.93 774.69 277.47 774.01 293.62 769.28 294.83 767.69 294.08 766.96 292.8 764.55 292.42 763.83 291.96 763.97 270.92 770.03 270.32 770.2 269.77 769.4 269.61 769.18 257.27 751.49 255.89 749.5 255.08 748.32 254.16 746.65 252.71 743.9 250.94 740.06 250.2 737.64 249.01 734.98 248.03 732.98 248.12 731.27 249.2 730.5 254.32 728.66 266.09 724.22 265.07 723.71 263.88 723.07 263.49 722.47 264.31 722 263.64 720.5 262.27 720.44 261.17 719.46 259.71 717.51 259.07 716.23 258.01 716.06 257.54 716.58 256.97 717.43 256.44 718.71 256.2 719.36 256.09 720.14 256.56 721.42 256.14 721.65 253.74 722.99 250.72 724.07 247.35 725.11 246.18 725.09 244.32 724.44 242.44 722.29 238.69 716.11 237.56 714.02 237.41 713.05 237.08 712.21 234.47 707.57 231.59 703.79 229.85 701.81 228.28 699.95 223.89 695.13 219.79 689.52 215.75 684.81 212.89 682.08 210.43 680.31 208.38 678.76 206.45 676.87 205.52 675.44 204.63 674.46 203.62 674.11 203.14 672.99 226.63 665.11 221.63 659.27 196.73 667.05 194.37 663.82 218.69 655.79 215.72 652.26 213.9 652.87 213.37 652.66 211.49 651.91 210.71 652.13 190.19 657.98 188.96 656.25 189.03 655.43 189.35 654.73 190.13 654.07 191.1 653.74 192.33 653.35 195.23 652.82 196.97 652.32 197.89 651.93 198.11 651.18 197.54 649.03 195.61 645 192.46 646.53 185.76 649.76 183.89 649.71 183.37 648.93 178.46 643.55 176.55 640.5 172.5 635.66 161.48 623.34 157.64 619.06 154.42 617.83 151 615.6 164.69 609.21 166.42 609.17 166.7 607.27 158.8 606.79 158.31 608.76 156.87 609.33 152.9 610.88 149.71 605.02 155.33 602.17 163.27 602.8 163.76 602.21 167.59 596.68 167.91 596.23 168.38 596.16 167.93 595.2 166.24 591.64 162.66 584.14 160.33 580.02 157.31 573.59 154.29 567.15 150.9 560.16 149.72 559.86 148.89 558.57 147.59 558.56 149.76 555.23 155.06 557.22 155.18 558.07 155.32 559.18 155.87 561.52 156.3 563.06 157.3 566.07 157.81 567.17 158.68 569.01 159.26 570.26 159.34 570.29 159.53 570.84 161.8 576.18 164.43 579.6 167.62 583.57 170.05 586.03 173.23 588.08 178.65 590.54 182.16 591.71 183.02 591.34 183.65 591.68 185.05 591.52 184.83 590.8 186.39 590.41 192.56 588.1 193.32 587.64 192.74 586.06 191.01 586.2 189.75 586.04 188.99 585.88 188.14 585.35 187.54 584.6 187.31 584.14 187.1 583.7 186.54 583.56 187.18 583.29 188.98 582.61 194.45 580.56 193.41 579.09 193.02 579.25 192.09 579.47 189.74 580.03 188.88 579.99 188.07 579.87 187.57 579.68 187.01 579.3 186.41 578.81 185.97 578.13 185.23 576.67 184.87 575.85 184.28 574.5 183.91 573.64 183.72 572.7 183.61 572.63 184.2 571.2 188.13 569.83 188.79 569.5 187.69 568.15 183.21 569.75 179.93 568.23 176.47 571.13 176.18 571.37 174.81 571.36 173.33 570.16 173.38 569.9 173.48 569.34 178.36 565.05 174.14 562.48 168.81 566.96 168.44 567.28 166.9 567.44 165.57 566.8 164.9 566.28 164.82 565.27 164.84 565.06 167 562.99 170.32 560.39 169.16 559.56 166.58 559.54 164.73 557.92 151.86 546.62 154.25 545.01 154.75 544.68 156.9 542.7 153.75 539.84 151.75 541.21 149.89 539.92 152.2 538.36 149.16 535.67 148.07 535.52 142.9 534.8 140.44 534.46 138.02 534.12 133.63 530.43 131.47 528.61 130.89 528.12 130.1 527.45 128.3 525.94 125.33 523.38 122.12 520.65 116.47 516.14 108.3 510.18 90.14 497.5 82.4 492.11 82.32 492.09 82.32 492.05 81.01 490.97 80.99 490.92 79.26 487.72 77.43 484.67 77.38 484.64 75.16 480.42 74.71 479.74 73.8 477.95 72.37 475.32 77.99 472.24 72.84 467.34 72.56 465.88 72.44 465.38 72.83 465.33 72.35 461.52 73.39 461.53 73.04 460.89 72.75 460.29 72.2 459.8 71.75 459.54 71.9 458.52 71.89 456.83 72.01 456.81 72.43 455.28 72.06 450.38 71.84 449.85 71.81 449.48 71.88 449.17 72.03 444.71 71.85 443.06 71.58 440.57 71.48 438.47 71.57 437.83 73.02 439.17 74.66 438.25 73.75 436.49 74.24 436.43 Z"/>
<path d="M 328.56 348.09 325.99 350.61 317.33 375.88 305.94 412.83 300.6 425.02 296.54 437.4 269.01 437.16 241.05 437 219.42 436.85 210.13 436.4 210.1 436.46 207.88 431.97 208.66 415.48 203.45 415.41 200.9 412.34 191.05 401.59 181.01 390.86 184.69 388.98 174.45 378.12 179.88 375.37 170.75 364.11 172.03 363.46 162.18 353.04 166.2 350.75 166.18 350.62 166.2 348.03 175.4 347.8 183.09 347.6 203.92 347.07 215.95 347.02 241.66 347.23 265.66 347.47 287.94 347.63 289.73 347.68 327.05 348.02 328.56 348.09 Z"/>
<path d="M 483.38 286.97 475.1 291.49 475.05 278.16 475 265.3 455.35 264.94 451.76 264.9 428.28 264.58 421.4 264.48 421.3 264.51 421.15 264.54 418.31 264.47 415.24 264.39 415.23 264.38 416.7 263 418.9 260.92 428.52 251.83 435.58 245.11 438.02 242.82 442.58 238.5 448.19 233.2 449.87 231.6 453.82 227.88 460.84 221.4 466.85 215.88 473.95 209.39 479.03 204.68 482.74 201.23 491.26 193.38 498.15 187.03 499.72 185.59 507.07 178.82 509.63 178.85 551.17 179.32 586.12 179.79 596.05 199.43 621.72 247.93 620.41 248.45 612.14 249.1 596.57 250.11 560.97 250.42 545.26 253.16 529.08 259.8 511.66 268.38 495.15 279.63 483.38 286.97 Z"/>
<path d="M 470.22 352.64 469.11 296.08 468.84 294.91 483.38 286.97 495.15 279.63 511.66 268.38 529.08 259.8 545.26 253.16 560.97 250.42 596.57 250.11 612.14 249.1 620.41 248.45 621.72 247.93 648.5 298.52 632.59 298.65 618.96 298.75 603.94 298.88 600.19 298.96 599.36 324.03 600.31 354.13 567.66 353.79 544.98 353.49 524.59 353.26 499.42 352.95 470.22 352.64 Z"/>
<path d="M 768.52 603.68 763.76 603.7 756.72 603.65 752.59 603.6 745.27 603.5 738.29 603.41 727.73 603.32 707.74 603.14 657.9 602.31 570.04 598.85 571.85 596.6 573.83 593.84 577.36 588.87 582.63 581.47 590.95 569.81 591.05 557.9 591.09 555.12 592.21 483.47 597.16 482.75 598.26 482.58 604.71 481.68 611.17 480.84 615.06 480.31 617.34 480 621.75 479.44 623.54 479.21 628.98 478.51 629.95 478.38 636.38 477.56 645.07 476.44 650.34 475.77 652.01 475.56 657.16 474.88 659.41 474.59 661.89 474.29 670.17 473.21 685.03 471.26 701.13 469.15 705.87 468.54 720.2 467.12 721.87 467.17 724.76 467.46 738.34 461.46 770.57 448.56 770.33 458.04 770.22 460.47 770.2 460.92 771.4 482.39 769.37 521.81 769.37 556.37 769.33 558.46 768.52 603.68 Z"/>
<path d="M 112.82 154.63 101.85 261.77 91.79 264.61 91.8 264.11 91.44 261.19 90.9 257.5 90.19 253.68 89.48 250.75 88 248.59 86.95 247.32 85.82 246.43 83.12 244.09 79.65 241.61 79.05 241.69 78.17 241.81 76.62 242.19 66.01 233.95 60.09 229.51 61.3 228.36 60.57 227.75 48.51 217.7 47.29 216.68 45.64 215.29 43.11 213.13 42.24 212.75 41.11 211.67 37.71 208.05 33.88 203.74 30.91 199.86 27.24 194.01 25.76 191.47 24.79 189.18 23.83 187.02 22.16 183.08 19.53 177.55 19 175 18.64 172.2 18.1 168.39 17.99 165.65 17.96 159.66 18.03 155.84 18.08 154.6 117.12 124.87 112.82 154.63 Z"/>
<path d="M 314.07 770.87 351.17 747.68 352 748.88 353.03 749.63 355.91 750.98 359.14 752.27 359.76 752.34 361.1 752.19 370.76 748.53 377.63 745.78 379.58 745.21 381.74 744.76 392.56 743.06 392.94 742.71 393.13 742.34 393.14 741.92 392.24 738.93 391.8 737.96 389.89 735.81 388.15 734.37 386.07 733.11 384.84 732.14 384.42 731.69 377.78 722.16 377.25 721.1 376.59 718.97 375.72 716.91 375.57 716.07 375.67 715.33 375.96 714.61 376.21 711.76 375.94 709.56 375.96 708.74 376.26 707.85 376.66 707.03 377.13 706.44 378.1 705.63 379.04 705.13 380.38 704.48 381.28 704.05 382.36 703.64 384.31 703.32 385.78 703.03 388.75 702.43 389.5 702.37 389.94 702.47 390.38 702.49 391.14 702.35 391.61 702.19 394.01 701.77 395.98 701.54 397.97 701.69 398.65 701.64 399.37 701.36 399.94 701.02 401.37 700.54 402.81 700.24 406.84 699.8 409.33 699.71 410.18 699.76 412.67 699.49 415.26 699.52 417.23 699.92 418.79 700.31 420.14 701.11 420.98 702.17 420.32 702.97 420.6 703.06 420.97 702.81 421.15 702.77 421.85 703.01 423.32 703.51 423.64 703.58 424.81 703.45 430.03 705.9 432.47 709.66 433.51 711.09 433.85 711.65 434.13 712.66 434.72 715.54 435.34 717.34 436.01 718.8 437.71 721.72 437.85 721.95 438.65 723.31 439.79 724.45 441.37 725.99 442.36 726.94 444.97 730.55 447.63 733.98 449.84 736.77 450.98 737.94 451.78 738.69 452.83 739.34 453.93 739.95 454.85 739.9 455.64 739.57 456.45 739.05 457.67 737.91 458.26 737.14 458.51 736.71 458.58 736.2 458.19 734.1 457.45 731.98 456.95 729.86 456.63 729.11 456.38 728.77 455.35 728.01 455.07 727.48 455.15 726.88 455.07 726.61 454.43 726.71 454.23 726.71 453.25 725.5 451.91 723.52 451.19 722.29 450.94 721.67 450.87 718.97 450.92 717.94 451.07 717.18 451.56 716.4 452.93 715.37 453.54 714.97 454.8 713.94 455.66 713.07 458.82 710.48 460.11 709.51 463.61 707.45 464.02 707.21 467.57 704.93 469.15 703.92 471.44 702.55 472.86 701.92 475.25 700.85 479.2 698.8 479.36 698.5 479.1 698.2 479.14 698.02 479.41 697.87 480.48 697.29 482.13 696.7 482.39 696.61 485.53 695.8 488.56 695.38 489.52 695.45 490.69 695.65 493.39 696.37 496.31 697.21 498.82 698.3 504.34 700.5 509.57 702.76 510.26 703.25 511.42 703.82 534.97 713.5 543.19 717.01 543.58 717.17 544.11 717.39 544.81 717.73 546.27 718.46 549.23 719.58 551.39 720.24 552.09 720.28 553 720.43 554.02 720.46 555.11 720.18 556.67 719.59 564.5 716.99 572.6 714.2 574.71 713.3 575.81 712.54 577.28 712.08 584.04 718.09 613.16 727.62 612.85 728.13 612.06 729.4 611.83 729.78 611.31 731.26 609.54 736.37 607.96 740.99 605.98 746.71 605.16 749.11 604.86 748.87 604.83 750.83 604.87 750.91 604.28 807.5 603.94 837.44 603.25 890.26 602.87 914.15 602.79 914.15 602.13 914.1 596.62 914.31 595.29 914.36 602.27 918.26 602.58 924.94 602.39 934.44 602.2 943.26 602.09 948.71 602.07 949.72 560.06 949.51 560.06 951.53 552.07 951.22 543.74 950.52 543.66 950.58 541.78 950.34 541.96 951.19 541.62 955.02 529.82 953.67 524.97 937.26 519.99 924.69 517.42 919.09 516.16 915.42 515.85 915.39 515.78 914.79 515.56 914.39 514.41 914.38 405.5 913.27 400.83 913.28 400.13 913.19 356.54 913 355.54 913.37 353.97 907.82 356.25 908.19 355.8 909 358.92 908.76 379.86 907.51 386.57 907 389.05 906.3 391.86 905.5 394.86 904.66 394.19 903.39 393.26 901.66 391.97 901.66 391 901.73 389.36 901.86 387.15 902.48 383.65 903.16 381 903.44 376.65 903.4 374.67 903.38 373.56 903.04 371.27 902.98 370.1 902.95 366.33 902.92 362.17 902.59 358.32 902.1 355.6 902.51 355.06 902.49 354.2 902.44 354.11 902.05 354.09 901.33 353.83 898.29 353.53 896.71 353.69 896 354.47 894.29 354.42 893.03 353.94 891.76 353.08 889.26 352.02 885.61 350.8 881.75 350.04 878.69 350.29 876.75 351.26 876.32 354.9 874.65 357.76 874.12 359.22 874.33 360.1 874.36 362.71 874.04 367.98 872.76 372.15 871.26 371 868.35 370.43 866.92 370.43 866.01 370.12 864.44 369.54 862.82 369.19 861.87 368.95 861.2 365.76 861.1 360.13 862.75 359.74 862.86 356.91 863.69 355.68 864.45 352.33 865.34 342.68 867.89 341.5 866.3 337.18 867.23 336.83 865.99 355.39 860.29 356.53 859.26 357.48 858.58 359.42 856.1 360.21 853.6 360.25 852.14 360.26 851.51 360.15 851.23 357.85 845.52 356.74 842.67 354.03 835.7 352.74 833.93 352.83 833.84 352.15 832.12 351.61 830.77 350.72 830.24 348.49 831.01 344.03 832.39 334.52 834.82 332.02 835.53 329.92 833.61 315.29 812.37 301.68 792.6 308.9 787.47 309.76 787.63 310.35 788.61 310.03 788.94 309.09 789.64 305.24 792.51 304.3 793.2 317.62 812.86 320.05 816.25 320.76 816.48 341.42 811.18 342.36 810.15 342.08 808.88 341.65 808.13 340.98 807.23 340.26 806.3 338.62 803.25 332.64 792.15 331.83 790.81 330.63 790.16 329.63 789.63 327.81 789.12 327.07 788.51 325.54 787.5 320.9 778.84 320.78 778.57 321.02 777.12 321.25 776 320.62 774.58 318.24 772.38 317.39 772.07 316.63 772.21 314.96 772.07 314.07 770.87 Z"/>
<path d="M 110.28 474.16 110.21 474.09 110.55 473.9 126.32 465.93 133.34 473.39 136.32 476.57 190.63 449.11 200.76 459.76 198.46 460.92 215.16 468.12 210.62 470.44 220.79 481.06 228.94 489.49 233.62 490.3 240.19 491.42 232.94 514.21 220.36 552.6 197.51 561.6 159.83 523.68 151.36 516.54 136.17 500.52 131.14 495.67 117.4 481.71 110.28 474.16 Z"/>
<path d="M 770.57 448.56 738.34 461.46 729.63 443.12 714 413.6 682.99 362.06 656.6 313.84 648.49 298.51 648.95 298.51 679.78 298.27 725.23 297.82 766.22 297.52 771.04 297.48 771.25 297.49 771.22 300.87 772.15 316.9 772.17 323.82 772.04 325.07 772.51 326.04 771.68 341.85 772.17 359.25 771.37 370.13 771.64 386.98 771.3 397.51 771.01 409.45 771.01 418.07 771.01 421.51 770.68 421.62 771 430.87 770.57 448.56 Z"/>
<path d="M 689.91 114.96 689.65 115.18 742.27 116.24 772.65 116.62 772.54 127.82 772.48 153.31 772.67 163 772.41 177.1 772.79 189.11 771.88 195.09 771.93 198.57 771.93 203.83 771.94 208.8 773.03 211.37 771.94 213.84 772.01 218.48 772.07 222.62 771.85 226.55 750.89 228.01 720.01 227.68 693.45 227.57 680.32 228.59 672.53 231.56 657.95 236.35 647.19 241.15 633.93 244.9 622.84 249.03 622.31 249.03 596.05 199.43 586.12 179.79 588.06 179.81 595.31 179.91 618.69 179.76 672.61 179.07 672.52 163.53 672.37 130.04 672.23 119.7 672.29 119.7 673.77 119.73 673.84 119.64 674.21 119.09 674.45 118.82 674.88 118.4 675.05 118.26 675.47 117.91 675.84 117.73 676.2 117.55 676.61 117.34 677.25 117.05 677.61 116.9 678.37 116.71 679.13 116.53 679.3 116.51 680.33 116.36 683.31 116.34 686.11 116.33 686.86 116.18 687.48 116.06 688.11 115.85 688.92 115.58 689.33 115.32 689.66 115.12 689.91 114.96 Z"/>
<path d="M 452.78 666.59 452.69 666.57 442.12 664.69 392.37 655.83 346.43 647.83 327.45 644.51 303.07 640.27 294.94 638.88 290.52 638.1 277.43 635.77 279.74 629.05 284.75 613.47 290.34 596.23 295.62 577.58 325.07 582.68 357.9 588.36 374.4 591.22 395.94 594.95 397.65 589.8 398.88 583.91 432.72 589.73 454.89 593.62 465.67 595.52 465.73 613.1 465.63 626.98 459.77 645.03 452.78 666.59 Z"/>
<path d="M 771.25 297.49 771.04 297.48 766.22 297.52 725.23 297.82 679.78 298.27 648.95 298.51 648.49 298.51 622.31 249.03 622.84 249.03 633.93 244.9 647.19 241.15 657.95 236.35 672.53 231.56 680.32 228.59 693.45 227.57 720.01 227.68 750.89 228.01 771.85 226.55 771.82 227.16 772.35 229.7 772.37 249.17 772.7 280.94 772.76 286.34 772.78 287.73 772.73 288.71 772.6 291.72 772.52 293.56 772.41 294.2 771.98 296.75 771.25 297.47 771.25 297.49 Z"/>
<path d="M 454.65 427.07 445.42 426.86 438.5 426.73 398.44 426.29 359.3 425.82 340.02 425.52 316.61 425.4 311.51 424.72 309.85 425.12 300.6 425.02 305.94 412.83 317.33 375.88 325.99 350.61 375.99 301.48 398.21 280.47 398.32 281.69 398.33 283.3 398.35 285.32 398.33 290.84 398.33 296.35 398.33 296.89 398.33 301.95 398.36 350.64 431.54 352.26 468.86 352.62 470.21 352.64 470.9 379.57 470.64 392.18 469.07 398.78 462.89 411.51 459.42 421.05 454.65 427.07 Z"/>
<path d="M 232.66 152.61 232.64 161.88 231.27 176.65 231.09 190.2 232.21 200.1 233.22 205.41 233.89 208.97 236.3 215.68 238.76 220 238.76 220 231.8 218.88 225.97 216.6 222.69 214.76 219.04 210.62 213.51 204.63 206.53 201.14 196.03 199.1 181.13 198.74 170.14 199.7 165.2 201.52 158.63 205.86 148.02 213.35 139.89 219.08 135.61 223.08 133.44 226.17 132.55 228.34 130.89 232.71 128.4 237.46 123.75 241.84 118.97 245.23 113.8 251.65 109.03 257.44 106.6 259.11 102.02 261.72 101.85 261.77 112.82 154.63 232.34 152.86 232.34 152.42 232.66 152.61 Z"/>
<path d="M 117.12 124.87 18.08 154.6 18.34 148.46 18.75 143.68 19.14 140.38 19.49 140.24 22.19 140.24 22.19 138.96 21.81 134 21.62 130.88 21.25 125.85 20.88 120.57 20.6 116.69 19.99 116.18 19.38 115.48 19.89 114.52 20.75 113.82 20.83 112.42 21.16 109.49 20.98 107.9 20.53 105.04 19.65 101.35 18.94 98.1 17.53 94.8 15.96 91.3 15.17 90.03 14.49 89.94 14.21 89.9 14.25 89.41 14.3 88.88 14.38 87.93 13.68 86.28 10.44 80.05 9.83 79.92 9.22 78.9 9.3 78.52 8.78 77.95 6.25 75.22 3.11 72.3 1.72 71.54 1 71.19 2.84 69.8 3.82 67.31 26.62 50.46 32.58 46.08 39.03 41.34 44.44 37.37 49.69 33.46 60.37 25.59 93.73 1 106.71 10.58 107.45 11.14 120.61 22.13 125.34 26.05 130.2 30.09 134.52 33.61 135.78 35.76 135.81 35.79 117.12 124.87 Z"/>
<path d="M 765.26 691.63 765.24 692.04 764.89 693.87 764.16 713.85 764.37 717.27 763.77 739.61 763.32 753.05 762.97 763.72 762.66 773.43 762.43 780.71 762.04 793.22 761.82 800.14 761.6 807.4 761.32 822.48 769.73 816.66 770.94 816.74 786.85 823.16 775.62 839.3 774.45 838.44 773.95 837.55 771.38 837.14 769.56 837.26 767.98 837.68 766.03 837.62 763.99 837.64 762.57 837.57 760.95 837.5 757.88 837.53 756.13 837.87 753.03 838.31 750.76 838.49 748.38 838.74 746.21 838.62 743.89 838.23 741.19 837.39 739.8 837.2 737.72 836.62 736.26 835.94 734.84 835.24 733.98 834.44 732.92 833.3 732.09 831.85 731.16 829.95 730.56 827.89 729.17 826.24 727.38 824.3 725.13 823.09 723.48 822.56 719.05 820.7 716.37 818.9 714.35 817.03 712.3 814.75 711.2 812.86 711.26 810.99 711.42 809.51 711.35 808.29 710.52 806.55 709.72 804.97 708.86 803.83 708.23 802.64 707.63 801.41 706.21 800 705.41 798.81 704.41 797.41 704.15 795.93 703.94 794.49 703.81 793.86 703.94 792.79 703.57 791.61 703.07 789.64 702.57 788.13 703 786.18 698.48 782.09 664.33 754.57 654.63 747.44 648.83 744.48 644.08 742.32 638.41 739.98 633.65 738.04 627.38 733.83 619.09 729.38 613.16 727.62 584.04 718.09 577.28 712.08 577.59 711.98 579.59 711.35 583.06 710.27 587.65 708.84 591.37 707.83 593.82 707.18 594.1 707.2 599.44 705.08 604.04 703.35 606.91 702.28 612.41 699.96 615.95 698.97 620.06 696.81 623.43 696.09 625.66 693.67 625.16 692.16 624.68 690.71 624.25 689.65 624.05 688.76 624.05 687.38 625.11 684.99 626.28 682.76 627.85 678.66 630.39 676.84 634.76 675.89 635.42 675.86 637.83 676.17 644.15 677.84 647.86 680.02 648.7 680.66 652.57 681.09 660.41 683.12 663.76 684.93 667.11 686.9 668.92 688.11 672.95 689.7 673.16 689.69 673.18 689.86 674.96 690.87 676.22 691.85 678.28 693.71 680.97 696.03 682.61 697.35 684.51 699.13 685.5 700.08 686.73 700.66 689.48 700.83 691.26 700.42 692.8 700.04 694.1 699.33 694.96 698.88 697.16 697.06 698.82 695.64 714.89 692.62 750.49 691.37 758.95 691.15 764.75 691.58 765.26 691.63 Z"/>
<path d="M 437.85 721.95 437.71 721.72 436.01 718.8 435.34 717.34 434.72 715.54 434.13 712.66 433.85 711.65 433.51 711.09 432.47 709.66 430.03 705.9 424.81 703.45 423.64 703.58 423.32 703.51 421.85 703.01 421.15 702.77 420.97 702.81 420.6 703.06 420.32 702.97 420.98 702.17 420.14 701.11 418.79 700.31 417.23 699.92 415.26 699.52 412.67 699.49 410.18 699.76 409.33 699.71 406.84 699.8 402.81 700.24 401.37 700.54 399.94 701.02 399.37 701.36 398.65 701.64 397.97 701.69 395.98 701.54 394.01 701.77 391.61 702.19 391.14 702.35 390.38 702.49 389.94 702.47 389.5 702.37 388.75 702.43 385.78 703.03 384.31 703.32 382.36 703.64 381.28 704.05 380.38 704.48 379.04 705.13 378.1 705.63 377.13 706.44 376.66 707.03 376.26 707.85 375.96 708.74 375.94 709.56 376.21 711.76 375.96 714.61 375.67 715.33 375.57 716.07 375.72 716.91 376.59 718.97 377.25 721.1 377.78 722.16 384.42 731.69 384.84 732.14 386.07 733.11 388.15 734.37 389.89 735.81 391.8 737.96 392.24 738.93 393.14 741.92 393.13 742.34 392.94 742.71 392.56 743.06 381.74 744.76 379.58 745.21 377.63 745.78 370.76 748.53 361.1 752.19 359.76 752.34 359.14 752.27 355.91 750.98 353.03 749.63 352 748.88 351.17 747.68 350.74 746.55 350.53 744.72 350.1 743.52 348.87 739.85 347.81 737.42 346.82 734.08 346.57 731.81 346.52 731.03 346.6 728.08 346.8 726.14 347.41 723.95 347.86 722.13 348.62 719.97 349.59 717.79 350.8 715.86 352.61 714.13 354.73 712.59 355.23 712.37 355.26 713.72 355.84 719.11 356.19 719.45 356.82 719.57 356.83 720.3 358.66 720.29 358.03 697.16 356.97 697 356.28 697.28 353.58 696.92 350.04 696.33 346.79 695.93 345.65 695.91 341.93 696.1 339.01 696.08 336.41 696.45 329.15 697.96 327.83 698.68 318.47 704.82 317.13 705.81 312.94 708.49 312.37 708.78 311.33 708.93 307.3 709.34 307.07 709.38 305.94 709.4 305.85 709.38 305.6 709.25 302.68 706.81 300.07 704.63 299.51 698.73 299.25 694.62 299.16 693.1 299.46 691.03 298.93 685.51 298.75 683.26 303.67 680.89 303.18 680.32 298.97 681.04 298.77 680.75 298.5 680.51 298.1 680.25 297.58 679.91 297.31 679.62 296.57 678.42 293.56 671.99 293.37 671.58 293.35 671.52 293.27 671.35 290.48 665.4 287.99 661.39 286.51 658.52 285.7 657.3 285.31 656.72 284.92 655.86 284.81 655.19 284.56 654.53 283.78 653.61 282.63 651.91 281.76 650.87 281.03 650.21 280.58 649.49 279.22 648.58 277.54 647.15 276.23 646.36 275.25 645.43 274.91 645.28 274.67 645.25 274.38 645.33 274.26 645.27 273.43 644.7 273.6 644.02 273.61 644.01 274.06 643.65 274.64 642.95 275.23 642.04 275.44 641.7 276.05 640 276.54 638.5 276.81 637.66 277.2 636.43 277.43 635.77 290.52 638.1 294.94 638.88 303.07 640.27 327.45 644.51 346.43 647.83 392.37 655.83 442.12 664.69 452.69 666.57 452.78 666.59 452.77 666.64 454.4 666.93 469.64 669.65 447.41 708.23 437.85 721.95 Z"/>
<path d="M 570.04 598.85 657.9 602.31 653.54 608.61 651.79 611.07 648.66 615.42 643.99 621.95 632.55 637.93 629.5 642.18 616.4 661.04 629.82 677.25 627.85 678.66 626.28 682.76 625.11 684.99 624.05 687.38 624.05 688.76 624.25 689.65 624.68 690.71 625.16 692.16 625.66 693.67 623.43 696.09 620.06 696.81 615.95 698.97 612.41 699.96 606.91 702.28 604.04 703.35 599.44 705.08 594.1 707.2 593.82 707.18 591.37 707.83 587.65 708.84 583.06 710.27 577.59 711.98 575.81 712.54 574.71 713.3 572.6 714.2 564.5 716.99 556.67 719.59 555.11 720.18 554.02 720.46 553 720.43 552.09 720.28 551.39 720.24 549.23 719.58 546.27 718.46 544.11 717.39 543.58 717.17 543.19 717.01 534.97 713.5 511.42 703.82 510.26 703.25 509.57 702.76 504.34 700.5 498.82 698.3 496.31 697.21 493.39 696.37 490.69 695.65 489.52 695.45 488.56 695.38 485.53 695.8 482.39 696.61 482.13 696.7 480.48 697.29 479.41 697.87 479.14 698.02 479.1 698.2 479.36 698.5 479.2 698.8 475.25 700.85 472.86 701.92 471.44 702.55 469.15 703.92 467.57 704.93 464.02 707.21 463.61 707.45 460.11 709.51 458.82 710.48 455.66 713.07 454.8 713.94 453.54 714.97 452.93 715.37 451.56 716.4 451.07 717.18 450.92 717.94 450.87 718.97 450.94 721.67 451.19 722.29 451.91 723.52 453.25 725.5 454.23 726.71 454.43 726.71 455.07 726.61 455.15 726.88 455.07 727.48 455.35 728.01 456.38 728.77 456.63 729.11 456.95 729.86 457.45 731.98 458.19 734.1 458.58 736.2 458.51 736.71 458.26 737.14 457.67 737.91 456.45 739.05 455.64 739.57 454.85 739.9 453.93 739.95 452.83 739.34 451.78 738.69 450.98 737.94 449.84 736.77 447.63 733.98 444.97 730.55 442.36 726.94 441.37 725.99 439.79 724.45 438.65 723.31 437.85 721.95 447.41 708.23 469.64 669.65 454.4 666.93 452.77 666.64 459.77 645.03 465.63 626.98 465.73 613.1 465.67 595.52 476.03 597.37 486.4 599.11 492.42 600.19 494.48 600.7 511.48 602.82 538.11 612.74 541.48 608.45 553.38 604.67 566.76 600.24 570.04 598.85 Z"/>
<path d="M 398.88 583.91 397.65 589.8 395.94 594.95 374.4 591.22 357.9 588.36 325.07 582.68 295.62 577.58 307.23 541.66 311.95 527.11 319.49 504.05 327.79 500.52 354.65 490.36 365.16 486.09 398.4 473.75 398.5 474.22 398.54 487.37 398.53 494.62 398.51 497.52 398.5 499.8 398.5 513.2 398.52 521.71 398.61 535.1 398.72 553.23 398.78 565.49 398.84 575.64 398.88 583.91 Z"/>
<path d="M 592.21 483.47 591.05 557.9 590.95 569.81 582.63 581.47 577.36 588.87 573.83 593.84 571.85 596.6 570.04 598.85 566.76 600.24 553.38 604.67 541.48 608.45 538.11 612.74 511.48 602.82 494.48 600.7 492.42 600.19 486.4 599.11 476.03 597.37 465.67 595.52 454.89 593.62 432.72 589.73 398.88 583.91 398.84 575.64 398.78 565.49 398.72 553.23 398.61 535.1 398.52 521.71 398.5 513.2 398.5 499.8 398.51 497.52 398.53 494.62 398.54 487.37 398.5 474.22 398.4 473.75 408.06 470.16 418.73 462.63 435.18 451.28 447.85 437.91 455.06 427.08 461.87 427.24 482.91 427.54 523.94 427.84 561.77 428.24 568.38 428.32 568.47 446.22 570.07 486.5 570.09 486.77 573.25 486.3 574.24 486.15 580.11 485.27 586.19 484.36 589 483.94 592.21 483.47 Z"/>
<path d="M 517.36 55.61 517.62 55.85 588.06 179.81 551.17 179.32 470.83 178.42 465.17 178.37 466.48 110.61 467.6 55.04 467.58 54.86 467.6 54.86 476.72 54.98 500.49 55.32 505.1 55.38 514.79 55.57 517.36 55.61 Z"/>
<path d="M 467.58 54.86 467.6 55.04 466.48 110.61 465.17 178.37 461.02 175.66 454.95 170.4 446.98 164.86 436 160.72 425.83 157.34 419.35 156.87 394.39 154.16 378.23 153.88 302.61 152.8 237.49 152.82 233.09 152.85 232.34 152.42 232.63 53.86 254.52 53.72 292.08 53.4 319.75 53.48 348.95 53.6 366.6 53.72 384.22 53.79 396.36 53.84 400.63 53.87 404.1 53.9 411.7 54.02 419.31 54.12 424.64 54.19 442.7 54.49 448.17 54.58 467.58 54.86 Z"/>
<path d="M 162.18 353.04 160.85 353.28 135.28 366.29 111.12 365.12 100.92 364.42 99.73 364.34 87.69 363.54 74.26 363.76 73.69 363.69 73.69 363.6 73.58 358.06 73.38 353.67 73.19 350.74 72.92 348.07 73.42 345.01 73.76 342.78 74.27 340.87 75.2 338.07 76.06 335.33 77.16 331.7 77.76 329.6 78.18 327.75 78.52 325.71 78.52 325.63 81.89 316.78 84.81 307.28 86.64 303.66 88.69 298.24 90.3 292.77 90.3 291.05 90.33 290.93 90.34 290.84 90.38 290.79 91.13 284.81 91.53 278.95 91.59 273.15 91.65 268.25 91.79 264.61 102.02 261.72 106.6 259.11 109.03 257.44 113.8 251.65 118.97 245.23 123.75 241.84 128.4 237.46 130.89 232.71 132.55 228.34 133.44 226.17 135.61 223.08 139.89 219.08 148.02 213.35 158.63 205.86 165.2 201.52 170.14 199.7 176.69 199.13 176.29 200.73 167.85 315.23 166.28 338.09 166.18 350.62 166.2 350.75 162.18 353.04 Z"/>
<path d="M 398.32 280.37 375.99 301.48 328.56 348.09 327.05 348.02 289.73 347.68 287.94 347.63 265.66 347.47 241.66 347.23 215.95 347.02 203.92 347.07 183.09 347.6 175.4 347.8 166.2 348.03 166.28 338.09 167.85 315.23 176.29 200.73 176.69 199.13 181.13 198.74 196.03 199.1 206.53 201.14 213.51 204.63 219.04 210.62 222.69 214.76 225.97 216.6 231.8 218.88 238.76 220 248.47 221.11 257.78 221.78 262.57 225.89 263.81 228.48 267.84 230.97 273.9 230.15 277.47 229.54 283.69 230.03 290.41 231.64 297.47 233.78 298.96 234.4 303.09 237.08 307.74 238.84 310.09 240.19 310.44 241.86 310.57 242.47 313.09 245.28 314.27 246.82 316.09 249.65 318.24 251.96 358.33 266.84 398.31 280.36 398.32 280.37 Z"/>
<path d="M 507.07 178.82 499.72 185.59 498.15 187.03 491.26 193.38 482.74 201.23 479.03 204.68 473.95 209.39 466.85 215.88 460.84 221.4 453.82 227.88 449.87 231.6 448.19 233.2 442.58 238.5 438.02 242.82 435.58 245.11 428.52 251.83 418.9 260.92 416.7 263 415.23 264.38 415.22 264.38 412.63 266.83 412.55 266.84 412.16 267.28 398.32 280.37 398.31 280.36 358.33 266.84 318.24 251.96 316.09 249.65 314.27 246.82 313.09 245.28 310.57 242.47 310.44 241.86 310.09 240.19 307.74 238.84 303.09 237.08 298.96 234.4 297.47 233.78 290.41 231.64 283.69 230.03 277.47 229.54 273.9 230.15 267.84 230.97 263.81 228.48 262.57 225.89 257.78 221.78 248.47 221.11 238.76 220 236.3 215.68 233.89 208.97 233.22 205.41 232.21 200.1 231.09 190.2 231.27 176.65 232.64 161.88 232.66 152.61 233.09 152.85 237.49 152.82 302.61 152.8 378.23 153.88 394.39 154.16 419.35 156.87 425.83 157.34 436 160.72 446.98 164.86 454.95 170.4 461.02 175.66 465.17 178.37 470.83 178.42 507.07 178.82 Z"/>
<path d="M 100.68 464.17 95.74 458.86 85.57 443.85 80.59 435.31 74.24 436.43 74.23 435.66 73 431.78 72.89 426.25 73.54 418.54 74.11 412.24 74.61 407.84 74.77 405.04 75.27 400.97 75.09 399.06 74.9 396.07 74.97 393.26 74.52 389.25 74.3 381.23 74.09 374.17 73.77 365.59 73.69 363.69 74.26 363.76 87.69 363.54 99.73 364.34 100.92 364.42 111.12 365.12 135.28 366.29 160.85 353.28 162.18 353.04 172.03 363.46 170.75 364.11 179.88 375.37 174.45 378.12 184.69 388.98 181.01 390.86 191.05 401.59 200.9 412.34 203.45 415.41 208.66 415.48 207.88 431.97 210.1 436.46 207.58 440.39 197.62 445.53 190.63 449.11 136.32 476.57 133.34 473.39 126.32 465.93 110.55 473.9 110.21 474.09 100.68 464.17 Z"/>
<path d="M 689.91 114.96 689.66 115.12 689.33 115.32 688.92 115.58 688.11 115.85 687.48 116.06 686.86 116.18 686.11 116.33 683.31 116.34 680.33 116.36 679.3 116.51 679.13 116.53 678.37 116.71 677.61 116.9 677.25 117.05 676.61 117.34 676.2 117.55 675.84 117.73 675.47 117.91 675.05 118.26 674.88 118.4 674.45 118.82 674.21 119.09 673.84 119.64 673.77 119.73 672.29 119.7 672.23 119.7 672.37 130.04 672.52 163.53 672.61 179.07 618.69 179.76 595.31 179.91 588.06 179.81 560.17 130.73 517.62 55.85 517.36 55.61 520.93 55.68 548.39 56.2 553.55 56.31 561.68 56.49 569.11 56.65 575.41 56.79 594.08 57.2 596.05 57.24 603.21 57.4 631.04 58 636.98 58.13 637.94 61.17 637.96 61.17 647.19 57.56 657.93 53.37 666.24 50.13 670.51 48.46 670.97 48.28 682.88 43.57 691.16 40.3 707.12 34.67 707.12 50.98 713.95 51.34 713.91 67.96 735.95 67.7 741.08 67.96 741.09 81.57 735.48 81.36 706.45 80.87 705.77 97.18 694.13 97.31 691.79 112.45 691.74 112.46 691.6 113.11 691.56 113.29 691.25 113.72 690.76 114.24 690.31 114.71 689.91 114.96 Z"/>
<path d="M 421.4 264.48 428.28 264.58 451.76 264.9 455.35 264.94 475 265.3 475.1 291.49 468.84 294.91 469.11 296.08 470.22 352.64 468.86 352.62 431.54 352.26 398.36 350.64 398.33 301.95 398.33 296.89 398.33 296.35 398.33 290.84 398.35 285.32 398.33 283.3 398.32 281.69 398.21 280.47 412.16 267.28 412.55 266.84 412.63 266.83 415.22 264.38 415.24 264.39 421.15 264.54 421.4 264.48 Z"/>
<path d="M 276.82 497.7 281.02 485.04 284.6 474.05 296.54 437.4 300.6 425.02 309.85 425.12 311.51 424.72 316.61 425.4 340.02 425.52 359.3 425.82 398.44 426.29 438.5 426.73 445.42 426.86 455.06 427.08 447.85 437.91 435.18 451.28 418.73 462.63 408.06 470.16 365.16 486.09 354.65 490.36 327.79 500.52 319.49 504.05 291.92 500.28 276.82 497.7 Z"/>
<path d="M 775.62 839.3 779.68 840.82 780.98 841.01 781.87 841.14 784.73 842.91 785.38 843.31 787.03 846.45 788.8 849.03 791.76 851.52 794.18 852.64 796.92 853.2 799 854.08 789.45 869.17 788.32 870.95 788.24 870.93 763.03 864.3 763.49 852.98 759.97 852.21 759.74 862.79 759.73 863.27 759.61 867.24 759.45 873.03 759.04 878.35 758.94 884.09 758.83 890.71 758.62 897.74 758.13 914.58 754.01 914.57 727.09 914.49 715.28 914.44 707.44 914.39 700.33 914.4 679.95 914.44 672.14 914.45 662.57 914.4 645.27 914.33 639.16 914.31 631.41 914.28 624.23 914.25 602.87 914.15 603.25 890.26 603.94 837.44 604.28 807.5 604.87 750.91 604.83 750.83 604.86 748.87 605.16 749.11 605.98 746.71 607.96 740.99 609.54 736.37 611.31 731.26 611.83 729.78 612.06 729.4 612.85 728.13 613.16 727.62 619.09 729.38 627.38 733.83 633.65 738.04 638.41 739.98 644.08 742.32 648.83 744.48 654.63 747.44 664.33 754.57 698.48 782.09 703 786.18 702.57 788.13 703.07 789.64 703.57 791.61 703.94 792.79 703.81 793.86 703.94 794.49 704.15 795.93 704.41 797.41 705.41 798.81 706.21 800 707.63 801.41 708.23 802.64 708.86 803.83 709.72 804.97 710.52 806.55 711.35 808.29 711.42 809.51 711.26 810.99 711.2 812.86 712.3 814.75 714.35 817.03 716.37 818.9 719.05 820.7 723.48 822.56 725.13 823.09 727.38 824.3 729.17 826.24 730.56 827.89 731.16 829.95 732.09 831.85 732.92 833.3 733.98 834.44 734.84 835.24 736.26 835.94 737.72 836.62 739.8 837.2 741.19 837.39 743.89 838.23 746.21 838.62 748.38 838.74 750.76 838.49 753.03 838.31 756.13 837.87 757.88 837.53 760.95 837.5 762.57 837.57 763.99 837.64 766.03 837.62 767.98 837.68 769.56 837.26 771.38 837.14 773.95 837.55 774.45 838.44 775.62 839.3 Z"/>
<path d="M 768.52 603.68 767.37 613.75 767.99 618.72 766.47 623.66 765.65 644.19 765.72 644.4 765.98 644.4 767.12 644.43 768.7 644.47 768.68 645.27 768.32 661.42 768.18 672.43 768.16 674.71 767.02 675.38 766.47 675.69 765.44 678.55 765.36 682.31 765.35 682.85 765.27 691.46 765.26 691.63 764.75 691.58 758.95 691.15 750.49 691.37 714.89 692.62 698.82 695.64 697.16 697.06 694.96 698.88 694.1 699.33 692.8 700.04 691.26 700.42 689.48 700.83 686.73 700.66 685.5 700.08 684.51 699.13 682.61 697.35 680.97 696.03 678.28 693.71 676.22 691.85 674.96 690.87 673.18 689.86 673.16 689.69 672.95 689.7 668.92 688.11 667.11 686.9 663.76 684.93 660.41 683.12 652.57 681.09 648.7 680.66 647.86 680.02 644.15 677.84 637.83 676.17 635.42 675.86 634.76 675.89 630.39 676.84 629.82 677.25 616.4 661.04 629.5 642.18 632.55 637.93 643.99 621.95 648.66 615.42 651.79 611.07 653.54 608.61 657.9 602.31 707.74 603.14 727.73 603.32 738.29 603.41 745.27 603.5 752.59 603.6 756.72 603.65 763.76 603.7 768.52 603.68 Z"/>
<path d="M 454.65 427.07 459.42 421.05 462.89 411.51 469.07 398.78 470.64 392.18 470.9 379.57 470.21 352.64 499.42 352.95 524.59 353.26 544.98 353.49 567.66 353.79 600.31 354.13 600.38 382.2 600.58 395.07 572.72 406.22 568.31 408.05 568.38 428.32 561.77 428.24 523.94 427.84 482.91 427.54 461.87 427.24 454.65 427.07 Z"/>
</g>
</svg>